<svg width="262" height="305" viewBox="0 0 262 305" fill="none" xmlns="http://www.w3.org/2000/svg">
<g opacity="0.2">
<path d="M228.459 228.459C270.517 186.401 270.517 118.211 228.459 76.153C186.401 34.0949 118.211 34.0949 76.1529 76.153C34.0948 118.211 34.0948 186.401 76.1529 228.459C118.211 270.517 186.401 270.517 228.459 228.459Z" fill="#26AFBE"/>
<path opacity="0.4" d="M59.5365 97.8668C57.7527 100.988 55.9689 104.333 54.408 107.678C59.5365 106.117 64.665 105.002 69.7934 105.448C76.7057 106.34 78.2665 111.691 74.4759 117.043C69.1245 124.401 61.0973 129.975 53.5161 134.881C50.8404 136.665 48.1647 138.448 45.489 140.232C45.043 144.246 44.8201 148.259 44.8201 152.496C44.8201 152.719 44.8201 152.942 44.8201 152.942C48.6107 149.597 52.6242 146.476 56.4148 143.354C63.3271 138.002 70.2394 132.651 76.4827 126.631C82.0571 121.056 88.3004 114.59 91.1991 107.009C96.3276 92.0694 74.9219 94.0762 59.5365 97.8668Z" fill="#4A1D80"/>
<path opacity="0.4" d="M82.2803 87.1634C94.0981 84.4877 105.916 80.6971 117.065 76.0146C135.349 68.4334 152.964 57.9535 168.795 45.9128C163.444 45.0209 157.869 44.575 152.295 44.575C116.396 44.575 84.5101 62.1901 65.1111 89.1702C70.9085 89.3932 76.9289 88.2783 82.2803 87.1634Z" fill="#4A1D80"/>
<path opacity="0.4" d="M195.106 109.907C187.971 111.914 179.275 114.59 171.916 112.583C165.45 110.799 164.781 104.556 168.349 99.4273C175.261 89.1704 187.525 82.0352 198.005 75.7919C203.133 72.8932 208.039 69.9945 212.944 66.6498C213.836 65.9809 214.728 65.5349 215.62 65.089C213.39 63.5282 211.16 61.9673 208.708 60.4065C206.478 61.9673 204.025 63.3052 201.795 64.866C191.761 71.7783 181.727 78.9135 171.916 86.2717C165.673 90.9542 159.43 96.0827 154.078 102.103C150.065 106.563 145.159 112.806 145.605 119.272C145.828 125.07 152.295 126.407 156.977 126.63C165.673 126.853 174.369 124.847 182.842 122.84C204.694 117.265 225.877 109.015 246.836 100.319C245.276 97.4206 243.492 94.7448 241.708 91.8461C226.323 98.9814 210.937 105.225 195.106 109.907Z" fill="#4A1D80"/>
<path opacity="0.4" d="M198.228 84.4882C196.444 86.272 194.66 88.2788 193.322 90.5086C191.761 93.1843 190.423 94.7451 194.437 95.6371C201.349 96.9749 208.039 93.8532 214.059 91.4005C220.748 88.7248 227.66 86.2721 234.573 83.8193C234.796 83.8193 235.019 83.5963 235.242 83.5963C231.005 78.4679 226.323 73.7854 221.417 69.5488C218.295 70.8867 215.174 72.6705 212.052 74.2313C207.147 77.353 202.241 80.4747 198.228 84.4882Z" fill="#4A1D80"/>
<path opacity="0.4" d="M58.8676 197.091C66.0028 187.726 74.03 178.138 84.2869 172.118C89.1924 169.219 94.7668 166.989 100.564 166.989C108.368 167.212 115.058 171.672 122.639 173.233C143.599 177.915 165.45 171.449 185.072 164.537C210.491 155.618 234.573 143.8 257.539 129.975C256.202 124.178 254.641 118.381 252.411 112.806C239.701 117.266 226.769 121.502 213.836 125.516C200.012 129.752 185.964 133.766 172.14 138.448C160.322 142.462 148.058 146.03 135.571 147.368C128.436 148.259 115.058 149.151 111.49 140.678C108.145 132.428 115.504 123.286 120.632 117.489C129.105 107.901 139.139 99.6506 149.173 92.0694C166.119 79.8057 182.619 66.8731 200.012 55.7243C196.221 53.7175 192.207 52.1567 187.971 50.5958C176.599 59.2919 164.781 67.765 153.41 76.4611C136.686 89.3937 121.301 103.441 107.03 119.05C87.6315 140.455 69.7934 163.422 49.2796 183.713C51.0634 189.733 53.2932 195.307 56.1919 200.659C57.0838 199.544 57.9757 198.206 58.8676 197.091Z" fill="#4A1D80"/>
<path opacity="0.4" d="M93.429 211.361C102.571 208.24 112.159 207.348 121.97 207.125C132.673 206.902 143.599 207.794 154.302 206.902C165.227 206.01 176.153 203.78 186.633 201.55C196.89 199.098 207.147 196.422 216.958 192.631C226.769 188.841 236.803 184.827 245.499 178.807C249.958 175.462 254.418 171.895 258.877 168.104C259.546 163.422 259.992 158.739 259.992 154.057C254.864 157.624 249.735 161.192 244.384 164.313C228.33 173.901 211.383 181.929 193.768 188.172C175.93 194.415 157.2 198.652 138.47 194.415C128.882 192.185 119.963 186.611 110.152 186.165C101.456 185.719 92.7601 187.949 85.4019 192.631C76.7058 197.76 69.3476 204.895 63.3272 213.145C65.7799 216.936 68.6786 220.28 71.5773 223.848C78.2666 218.497 85.6248 214.26 93.429 211.361Z" fill="#4A1D80"/>
<path opacity="0.4" d="M141.369 234.105C133.119 222.51 119.295 223.848 107.254 227.639C100.119 229.868 92.9834 233.436 86.5171 237.45C90.0847 240.348 94.0983 242.801 97.8889 245.254C105.024 239.01 113.274 234.551 122.862 235.666C134.011 237.004 136.018 249.044 136.91 258.855C139.585 259.301 142.484 259.524 145.16 259.747C147.39 251.051 146.052 240.794 141.369 234.105Z" fill="#4A1D80"/>
<path opacity="0.4" d="M179.944 245.031C187.748 237.004 197.336 231.429 207.593 226.97C217.85 222.733 228.33 219.388 239.033 216.267C241.931 212.253 244.607 208.017 247.06 203.557C231.006 206.233 214.505 208.24 199.12 213.591C191.985 216.044 185.518 218.942 179.721 223.848C174.37 228.085 169.464 232.99 165.228 238.564C160.545 244.362 155.194 252.166 152.741 259.97C158.761 259.97 164.559 259.524 170.356 258.409C172.809 253.504 175.93 249.044 179.944 245.031Z" fill="#4A1D80"/>
<path opacity="0.4" d="M216.289 233.882C207.593 238.341 200.012 244.139 193.992 251.497C206.924 246.146 218.296 238.341 228.107 228.53C224.316 230.091 220.303 231.875 216.289 233.882Z" fill="#4A1D80"/>
<path opacity="0.7" d="M152.295 44.575C92.7603 44.575 44.5974 92.7378 44.5974 152.272C44.5974 211.807 92.7603 259.97 152.295 259.97C211.83 259.97 259.993 211.807 259.993 152.272C259.993 92.7378 211.83 44.575 152.295 44.575ZM145.606 232.544C97.2198 232.544 58.199 193.3 58.199 145.137C58.199 96.7514 97.4428 57.7306 145.606 57.7306C193.992 57.7306 233.012 96.9744 233.012 145.137C233.012 193.523 193.769 232.544 145.606 232.544Z" fill="#2789BA"/>
<path d="M152.295 44.575C150.734 44.575 149.173 44.575 147.612 44.7979C205.14 45.9128 251.296 92.7378 251.296 150.489C251.296 208.908 204.025 256.179 145.606 256.179C124.869 256.179 105.47 250.159 89.1927 239.679C107.031 252.612 128.659 260.193 152.295 260.193C211.83 260.193 259.993 212.03 259.993 152.495C259.993 92.7378 211.83 44.575 152.295 44.575Z" fill="#2789BA"/>
<path d="M312.392 102.103C307.709 89.8393 280.952 87.3865 242.6 93.8529C244.384 96.7516 246.168 99.6502 247.729 102.549C271.364 99.8732 287.196 102.326 290.094 110.13C293.216 118.38 281.621 131.536 259.992 145.806C237.695 160.746 204.694 177.246 166.565 191.516C128.882 205.564 93.4291 214.929 66.895 218.274C40.8068 221.618 23.1916 219.611 20.07 211.138C17.1713 203.111 27.6512 190.848 47.496 177.246C46.8271 174.347 46.1582 171.226 45.9352 168.327C15.1645 187.949 -2.00469 206.456 2.45484 218.274C7.13734 230.76 34.7864 232.99 74.0302 226.301C102.125 221.618 136.241 212.253 172.14 198.875C206.255 186.165 236.803 171.449 260.438 157.401C296.338 135.772 317.297 115.036 312.392 102.103Z" fill="#DC0071"/>
<path d="M312.169 101.434C307.486 89.1703 280.729 86.7176 242.377 93.1839C244.161 96.0826 245.945 98.9813 247.506 101.88C271.141 99.2043 286.972 101.657 289.871 109.461C292.993 117.711 281.398 130.867 259.769 145.137C237.472 160.077 204.471 176.577 166.342 190.848C128.659 204.895 93.206 214.26 66.6718 217.605C40.5836 220.949 22.9685 218.943 19.8468 210.469C16.9481 202.442 27.428 190.179 47.2729 176.577C46.604 173.678 45.935 170.557 45.712 167.658C14.9413 187.28 -2.45083 205.787 2.00869 217.605C6.6912 230.091 34.3403 232.321 73.5841 225.632C101.679 220.949 135.794 211.584 171.694 198.206C205.809 185.496 236.357 170.78 259.992 156.732C296.114 135.103 316.851 114.144 312.169 101.434Z" fill="#E6799C"/>
<path d="M222.31 172.341C222.31 173.233 221.641 173.901 220.749 173.901C219.857 173.901 219.188 173.233 219.188 172.341C219.188 171.449 219.857 170.78 220.749 170.78C221.641 171.003 222.31 171.672 222.31 172.341Z" fill="#F2B3C7"/>
<path d="M12.043 208.909C12.043 209.801 11.1511 210.693 10.2592 210.693C9.36728 210.693 8.47537 209.801 8.47537 208.909C8.47537 208.017 9.36728 207.125 10.2592 207.125C11.3741 207.125 12.043 207.794 12.043 208.909Z" fill="#F2B3C7"/>
<path d="M26.9821 222.733C26.9821 223.402 26.3131 224.071 25.6442 224.071C24.9753 224.071 24.3064 223.402 24.3064 222.733C24.3064 222.064 24.9753 221.396 25.6442 221.396C26.3131 221.173 26.9821 221.841 26.9821 222.733Z" fill="#F2B3C7"/>
<path d="M16.0564 202.888C16.0564 203.557 15.6104 204.003 14.9415 204.003C14.2726 204.003 13.8266 203.557 13.8266 202.888C13.8266 202.219 14.2726 201.773 14.9415 201.773C15.3874 201.55 16.0564 202.219 16.0564 202.888Z" fill="#F2B3C7"/>
<path d="M55.9693 259.97C55.9693 264.206 52.6247 267.551 48.3881 267.551C44.1516 267.551 40.8069 264.206 40.8069 259.97C40.8069 255.733 44.1516 252.389 48.3881 252.389C52.4017 252.389 55.9693 255.733 55.9693 259.97Z" fill="#FFEB7D"/>
<path d="M181.059 167.435C181.059 171.671 177.715 175.016 173.478 175.016C169.242 175.016 165.897 171.671 165.897 167.435C165.897 163.198 169.242 159.854 173.478 159.854C177.715 159.854 181.059 163.198 181.059 167.435Z" fill="#FFEB7D"/>
</g>
</svg>
