<svg width="214" height="214" viewBox="0 0 214 214" fill="none" xmlns="http://www.w3.org/2000/svg">
<g opacity="0.3" clip-path="url(#clip0_2_4686)">
<path d="M10.1594 69.4696C24.4377 33.7738 59.3098 7.41387 97.2022 1.37304C105.44 0.000130378 113.677 -0.274452 121.64 0.549296C142.783 3.02054 162.278 14.0039 177.106 29.1059C191.933 44.208 202.093 63.4288 208.408 83.4733C211.154 92.5345 213.351 102.145 212.527 111.755C211.703 119.993 208.683 127.956 205.388 135.369C191.933 165.574 171.065 195.503 139.763 206.486C108.46 217.47 73.8626 207.036 46.4044 190.561C22.2411 176.282 8.23736 150.746 4.11862 123.013C1.37279 105.165 3.29487 86.4937 10.1594 69.4696Z" fill="#BB6C51"/>
<path d="M47.2284 69.7442C49.6996 62.3305 52.4455 54.6422 57.6625 48.8759C65.6254 39.8147 78.5308 36.5197 90.3379 33.7739C98.0262 31.8518 105.715 30.2043 113.677 28.2822C105.715 34.8722 98.8499 42.8351 93.3583 51.3472C88.1412 59.5847 84.0225 68.6459 76.6087 74.6867C72.49 78.2563 67.5475 80.453 62.3304 82.375C57.3879 84.2971 46.1301 89.5142 41.1876 87.3175C42.5605 81.5513 45.3063 75.5105 47.2284 69.7442Z" fill="#9B5840"/>
<path d="M60.4082 95.2802C67.2728 91.436 74.6865 88.9647 80.7274 84.0223C93.6328 73.8627 98.3007 56.2894 110.108 44.7569C119.444 35.6957 132.349 31.5769 145.254 29.9294C134.82 33.7736 126.583 42.0111 120.267 51.0723C113.952 60.1336 109.833 70.5677 105.44 80.7273C103.792 84.846 101.87 89.2393 99.1244 92.8089C93.0836 100.497 82.6494 103.518 73.0391 104.067C67.822 104.341 62.6049 104.067 57.6624 105.44C47.2283 108.186 40.6383 116.698 34.3229 124.661C38.4416 112.304 48.6012 101.87 60.4082 95.2802Z" fill="#9B5840"/>
<path d="M142.508 191.384C144.156 187.814 146.352 184.519 148.824 181.774C151.569 178.479 154.864 175.733 158.159 172.712C165.299 166.397 172.438 160.082 179.577 154.041C181.774 152.119 184.245 150.197 186.991 149.373C190.011 148.824 193.306 149.922 194.13 152.942C194.679 154.59 194.13 155.963 193.581 157.61C190.011 168.319 181.224 176.282 172.438 183.421C165.299 189.187 158.159 194.679 150.746 199.622C148 201.544 145.254 204.564 142.234 201.544C139.488 199.072 141.135 194.13 142.508 191.384Z" fill="#9B5840"/>
<path d="M114.501 170.241C116.972 164.75 117.521 158.434 119.718 152.943C121.914 147.176 126.033 141.959 131.25 138.664C133.996 136.742 137.016 135.369 140.311 135.369C143.057 135.369 145.803 135.918 148.274 136.193C159.532 137.566 170.515 131.525 179.577 124.935C188.638 118.071 197.425 110.108 207.859 106.264C197.699 100.223 184.794 98.8498 173.81 102.694C160.356 107.636 150.471 119.169 138.115 126.583C129.603 131.8 119.718 134.82 110.931 139.213C101.87 143.607 93.3577 150.197 89.7881 159.807C86.2185 169.143 88.1406 179.303 87.866 189.188C87.866 191.659 86.2185 196.876 88.1406 198.249C96.6527 189.188 109.283 180.95 114.501 170.241Z" fill="#9B5840"/>
<path d="M186.716 68.9208C173.536 71.1175 163.102 81.0024 153.766 90.0637C151.295 92.5349 148.549 95.5553 149.373 98.8503C149.922 101.322 152.393 102.694 154.865 102.969C157.336 103.244 159.807 102.694 162.004 101.871C169.692 99.1249 176.831 94.7316 184.794 92.8095C191.659 91.162 198.798 91.162 205.663 91.7112C206.212 91.7112 207.035 91.7112 207.585 91.4366C207.859 91.162 208.134 90.3383 208.134 89.7891C208.683 83.7483 207.859 75.5108 204.29 70.2937C200.72 65.3512 192.483 67.8225 186.716 68.9208Z" fill="#9B5840"/>
<path d="M54.6417 28.8312C61.7809 24.7125 69.4692 22.5158 77.4321 20.3191C82.6492 18.9462 87.8662 17.2987 93.0833 15.9258C95.28 15.3766 97.7512 14.5529 99.6733 13.18C101.595 11.8071 102.968 9.33582 102.419 6.86458C101.87 4.39333 99.3987 2.47125 96.6529 2.19667C93.9071 1.92209 91.4358 2.47125 88.9646 3.295C78.805 6.04083 68.6455 9.06124 59.5842 13.7291C50.2484 18.6716 42.0109 25.5362 33.7734 32.6754C29.3801 36.5195 22.5155 41.1874 20.868 46.9537C19.4951 51.0724 20.3189 54.9166 24.7122 53.8182C29.9293 52.4453 35.6955 44.757 39.5397 41.1874C44.2076 36.5195 48.8755 32.1262 54.6417 28.8312Z" fill="#9B5840"/>
<path d="M174.36 26.6342C203.466 59.035 218.568 96.9274 202.093 139.488C186.442 180.126 152.394 210.605 107.087 209.506C67.822 208.683 28.0075 185.892 12.6309 148.824C-4.39327 108.185 5.21713 68.3708 31.8517 34.8717C32.6754 33.7734 31.0279 32.1259 29.9296 33.2242C-20.3191 82.6491 -4.66785 169.417 56.8387 200.994C85.3953 215.822 121.64 218.842 151.295 204.564C182.048 190.011 203.191 157.336 210.88 124.66C219.392 87.5916 204.015 49.6992 175.733 24.9867C174.909 24.4375 173.811 25.8105 174.36 26.6342Z" fill="#260029"/>
<path d="M182.323 32.4005C163.926 7.96268 127.406 -1.92231 98.3004 0.548939C65.8996 2.7456 36.7938 18.946 19.4951 46.4043C18.946 47.5026 20.3189 48.6009 21.1426 47.5026C40.3634 23.0647 65.3505 7.13893 96.9275 4.11852C129.603 1.0981 156.237 14.0035 181.224 33.4989C182.048 34.3226 182.872 33.2243 182.323 32.4005Z" fill="#260029"/>
<path d="M210.88 103.792C194.954 100.222 177.655 96.9273 163.102 106.263C154.865 111.206 148.549 118.894 140.037 123.836C130.427 129.053 119.718 131.525 110.108 136.467C99.3989 142.233 91.1615 150.471 90.0631 163.102C89.514 168.868 90.3377 174.36 89.2394 180.4C87.8665 185.343 85.1206 189.462 83.7477 194.404C82.1002 199.896 81.8256 204.289 84.5715 209.506C85.1206 210.605 86.7681 209.781 86.219 208.683C81.5511 199.072 88.9648 190.011 91.1615 180.95C92.2598 175.733 91.436 170.516 91.9852 165.298C93.3581 144.43 111.206 137.566 127.956 130.976C140.037 126.308 148 119.992 157.885 112.304C174.36 99.3986 191.659 101.321 211.154 105.165C211.703 105.439 211.703 104.066 210.88 103.792Z" fill="#260029"/>
<path d="M209.781 108.734C193.581 107.087 186.167 120.541 174.909 129.603C160.631 140.861 141.959 130.152 127.681 140.586C124.111 143.332 121.366 146.352 119.718 150.471C118.071 154.864 119.444 160.081 118.071 164.749C115.874 172.163 111.206 178.204 105.44 182.872C96.3786 190.011 86.4936 198.248 89.7886 210.879C90.0632 211.977 91.7107 211.703 91.4361 210.605C86.7682 193.306 107.087 187.54 115.325 176.556C125.21 163.925 116.698 143.881 136.742 138.664C148.275 135.643 160.356 140.586 171.614 134.271C185.069 126.582 191.659 108.734 209.781 110.382C210.88 110.382 210.88 108.734 209.781 108.734Z" fill="#260029"/>
<path d="M128.23 135.644C117.521 141.685 113.677 154.041 110.931 165.299C110.657 165.848 111.755 166.397 112.03 165.573C114.776 154.041 118.62 143.332 128.779 136.468C129.328 136.193 128.779 135.369 128.23 135.644Z" fill="#260029"/>
<path d="M110.382 166.946C107.637 180.126 97.2025 182.048 90.0633 191.384C85.9446 196.876 85.1208 203.466 86.7683 210.056C87.0429 211.154 88.6904 210.879 88.4158 209.781C84.5716 195.503 94.4566 190.286 103.518 182.048C108.186 177.929 110.382 172.987 111.755 166.946C111.755 166.397 110.657 166.397 110.382 166.946Z" fill="#260029"/>
<path d="M133.172 133.173C121.64 135.644 109.009 140.586 102.145 150.471C99.1242 154.59 97.7513 159.533 96.653 164.475C93.9071 175.733 91.4359 186.442 87.0426 197.425C86.768 198.249 88.1409 198.798 88.4155 197.974C93.6326 185.343 95.0055 172.163 99.6734 159.533C105.714 143.607 119.443 139.763 133.722 134.545C134.271 134.271 133.996 132.898 133.172 133.173Z" fill="#260029"/>
<path d="M115.325 144.431C111.481 151.57 110.657 159.258 107.636 166.672C105.714 171.614 102.969 174.909 98.5753 178.204C96.3786 180.126 95.0057 180.95 93.9073 183.696C93.6328 184.245 94.7311 184.794 95.0057 184.245C98.5752 178.204 104.891 175.733 107.911 169.143C111.481 161.18 112.03 152.393 116.149 144.705C116.423 144.431 115.599 143.881 115.325 144.431Z" fill="#260029"/>
<path d="M115.874 143.607C98.301 150.746 99.6739 167.77 93.9077 183.146C93.6331 183.97 94.7314 184.519 95.2806 183.97C98.5756 177.929 98.8501 171.614 100.498 165.024C102.969 155.963 108.186 149.373 116.423 144.979C116.973 144.156 116.423 143.057 115.874 143.607Z" fill="#260029"/>
<path d="M110.382 150.196C102.969 156.237 101.596 166.397 99.1245 175.183C98.8499 176.007 99.9483 176.556 100.497 175.732C103.792 167.22 104.067 157.61 111.481 151.294C111.755 150.471 110.932 149.647 110.382 150.196Z" fill="#260029"/>
<path d="M110.657 150.746C108.735 154.59 108.186 158.983 106.813 162.828C105.166 167.221 102.145 169.967 99.6739 173.811C99.1247 174.635 100.223 175.458 100.772 174.909C108.461 168.868 108.461 159.533 111.756 151.295C112.03 150.471 110.932 150.197 110.657 150.746Z" fill="#260029"/>
<path d="M201.818 106.263C189.462 106.538 184.794 115.874 176.557 123.013C162.004 135.918 143.881 126.308 128.23 135.095C127.406 135.644 127.955 136.742 128.779 136.193C141.41 130.152 154.865 135.095 167.77 130.427C181.499 125.484 186.442 108.46 202.093 107.636C202.642 107.636 202.642 106.263 201.818 106.263Z" fill="#260029"/>
<path d="M200.72 105.44C192.208 104.341 182.048 102.145 173.811 104.89C163.926 107.911 157.061 116.697 148.824 122.738C148.274 123.287 148.824 123.837 149.647 123.562C157.061 118.62 163.102 111.206 171.339 107.636C180.401 103.517 191.109 106.263 200.445 106.812C201.544 106.812 201.544 105.44 200.72 105.44Z" fill="#260029"/>
<path d="M136.193 130.701C136.742 130.701 137.017 129.603 136.193 129.603C135.644 129.603 135.644 130.701 136.193 130.701Z" fill="#260029"/>
<path d="M135.095 130.152C132.349 131.525 129.329 133.447 127.132 135.918C126.583 136.468 127.407 137.017 127.956 136.742C130.427 134.82 132.624 132.623 135.37 131.251C135.919 130.701 135.644 129.878 135.095 130.152Z" fill="#260029"/>
<path d="M148 123.562C144.979 124.935 141.959 126.582 138.939 128.23C138.389 128.504 138.664 129.603 139.488 129.328C142.508 127.955 145.529 126.308 148.549 124.66C148.824 124.111 148.549 123.287 148 123.562Z" fill="#260029"/>
<path d="M189.737 107.362C182.872 110.657 179.302 116.148 173.811 120.816C165.299 127.955 153.766 127.681 143.332 129.054C142.234 129.054 142.508 130.701 143.607 130.701C152.393 129.877 162.553 129.877 170.516 125.209C178.204 120.816 182.597 112.579 190.56 108.46C190.835 108.185 190.56 107.087 189.737 107.362Z" fill="#260029"/>
<path d="M190.011 107.362C182.597 107.362 175.458 107.911 168.868 111.755C161.729 115.874 155.139 121.365 148.824 126.308C148.274 126.857 148.824 127.406 149.647 127.132C154.864 123.562 160.082 119.718 165.299 115.874C173.262 110.382 180.401 108.734 190.011 108.46C190.56 108.46 190.835 107.362 190.011 107.362Z" fill="#260029"/>
<path d="M147.725 126.857C146.078 127.406 144.156 127.956 142.783 129.054C142.234 129.328 142.508 130.427 143.057 130.152C144.705 129.603 146.352 128.779 148 127.956C148.824 127.681 148.274 126.583 147.725 126.857Z" fill="#260029"/>
<path d="M182.048 110.107C170.79 110.657 162.827 119.718 154.041 125.209C153.491 125.759 153.766 126.857 154.59 126.308C164.2 121.64 171.065 112.03 182.323 111.206C183.146 111.206 182.872 110.107 182.048 110.107Z" fill="#260029"/>
<path d="M180.95 110.656C176.831 112.853 174.086 116.697 170.241 119.169C165.848 121.914 160.631 123.013 155.963 124.935C155.139 125.209 155.689 126.308 156.238 126.308C160.906 125.759 165.573 123.836 169.692 121.365C174.086 118.619 177.106 114.226 181.499 111.755C182.323 111.48 181.774 110.382 180.95 110.656Z" fill="#260029"/>
<path d="M174.36 113.677C172.987 114.501 171.614 115.599 169.967 116.423C168.594 117.521 166.672 118.345 165.573 119.718C165.024 120.267 165.573 121.091 166.122 120.816C167.77 120.267 169.143 118.894 170.516 118.071C172.163 116.972 173.536 116.148 175.184 114.776C175.458 114.501 174.909 113.403 174.36 113.677Z" fill="#260029"/>
<path d="M209.507 99.3986C202.093 96.9274 194.405 95.829 186.442 96.3782C176.557 96.9273 169.967 101.87 160.906 104.341C155.689 109.009 151.845 105.989 149.648 95.5544C151.845 92.8086 154.041 90.0628 156.787 87.5915C161.18 83.4728 166.123 80.1778 171.34 77.1574C180.95 71.9403 191.659 69.1945 202.642 67.547C204.015 67.2724 203.466 65.3503 202.368 65.6249C188.913 67.547 175.733 71.3911 164.201 79.0795C157.336 83.7474 144.98 93.0832 145.255 102.694C145.529 108.185 149.648 110.107 154.865 109.284C162.553 107.911 169.692 101.595 177.655 99.6732C188.364 97.2019 198.798 98.0257 209.507 101.046C209.782 101.046 210.331 99.6732 209.507 99.3986Z" fill="#260029"/>
<path d="M203.466 68.6453C192.208 69.7436 181.225 73.8624 171.614 79.6286C166.397 82.9236 153.217 90.6119 153.217 98.3002C153.217 101.321 153.492 101.595 156.512 102.419C162.279 103.517 171.065 98.0256 176.557 96.9273C184.52 95.2798 192.757 95.2798 200.995 96.3781C202.093 96.3781 202.093 95.0052 201.269 94.7306C194.13 93.9069 186.991 93.6323 180.126 94.7306C176.557 95.2798 173.262 96.3782 169.692 97.2019C166.123 98.3002 154.041 105.989 157.336 93.9069C159.258 87.3169 174.36 79.9032 179.303 77.4319C186.991 73.5878 195.229 71.6657 203.741 70.2928C204.564 69.7436 204.29 68.3707 203.466 68.6453Z" fill="#260029"/>
<path d="M207.31 96.3783C206.761 96.3783 206.212 96.1037 205.662 95.8291C205.113 95.5546 204.289 96.1037 204.839 96.6529C205.388 97.4766 206.212 98.0258 207.31 98.0258C208.134 97.7512 208.134 96.3783 207.31 96.3783Z" fill="#260029"/>
<path d="M204.29 90.6121C198.798 89.7883 193.581 89.5137 188.09 89.7883C185.069 90.0629 164.201 94.4562 164.475 89.2391C164.475 88.4154 163.377 88.4154 163.103 89.2391C162.279 93.3579 165.299 95.0054 169.418 94.7308C174.086 94.4562 179.028 92.2596 183.971 91.7104C190.835 90.8867 197.425 91.1612 204.29 91.7104C204.839 91.7104 205.114 90.6121 204.29 90.6121Z" fill="#260029"/>
<path d="M170.79 85.1201C180.675 79.3539 191.11 76.0589 202.642 75.2351C203.74 75.2351 203.466 73.5876 202.367 73.5876C190.835 74.1368 179.852 77.7064 169.967 84.0218C169.417 84.571 170.241 85.3947 170.79 85.1201Z" fill="#260029"/>
<path d="M203.466 78.2559C191.934 77.9813 180.95 81.0017 171.614 87.5917C171.065 88.1409 171.34 89.2392 172.164 89.2392C182.323 89.2392 192.483 84.2967 202.642 86.768C203.741 87.0426 204.29 85.3951 203.191 85.1205C192.483 82.6492 182.872 88.1409 172.164 87.3171C172.438 87.8663 172.438 88.4155 172.713 88.9646C182.049 82.6492 191.934 79.0797 203.191 79.3542C204.015 79.0797 204.015 78.2559 203.466 78.2559Z" fill="#260029"/>
<path d="M200.445 81.2763C197.425 81.5509 194.13 81.2763 191.109 81.8255C190.56 82.1 190.56 82.9238 191.109 82.9238C194.13 83.1984 197.425 82.6492 200.445 82.3746C201.544 82.3746 201.269 81.0017 200.445 81.2763Z" fill="#260029"/>
<path d="M160.631 77.1575C137.291 85.6695 137.017 117.247 115.874 129.054C115.05 129.603 115.599 130.701 116.423 130.152C139.488 120.816 138.664 88.6899 161.18 78.2558C162.004 77.9812 161.455 76.8829 160.631 77.1575Z" fill="#260029"/>
<path d="M151.02 111.755C143.332 115.874 135.644 119.992 128.23 124.386C127.406 124.935 127.955 126.033 128.779 125.758C136.742 122.738 144.98 118.07 151.844 113.128C152.393 112.579 151.57 111.48 151.02 111.755Z" fill="#260029"/>
<path d="M141.41 105.439C138.115 112.029 133.722 117.521 129.878 123.836C129.603 124.385 130.152 125.209 130.702 124.66C135.919 119.718 139.488 112.304 142.234 105.714C142.783 105.165 141.685 104.89 141.41 105.439Z" fill="#260029"/>
<path d="M144.98 111.755C143.607 112.578 141.959 113.128 140.861 114.226C140.312 114.775 140.861 115.599 141.41 115.324C142.783 114.775 144.156 113.677 145.529 112.853C146.352 112.304 145.803 111.48 144.98 111.755Z" fill="#260029"/>
<path d="M144.156 107.361C143.058 109.833 142.234 112.029 141.136 114.226C140.861 115.05 141.959 115.599 142.509 115.05C143.882 112.853 144.98 110.382 145.529 107.636C145.804 106.812 144.431 106.538 144.156 107.361Z" fill="#260029"/>
<path d="M107.362 131.525C96.104 137.291 84.8461 145.803 80.1782 158.16C77.9816 163.926 77.9816 169.418 78.2561 175.458C78.5307 182.323 79.0799 188.364 77.707 194.954C76.8832 199.622 75.5103 203.191 75.5103 207.859C75.5103 209.232 77.4324 209.507 77.4324 208.134C77.4324 202.093 80.1782 196.876 80.7274 190.835C81.5511 184.794 80.1782 178.753 80.1782 172.713C80.1782 152.943 92.2599 142.234 107.911 132.623C108.735 132.349 108.186 131.251 107.362 131.525Z" fill="#260029"/>
<path d="M93.0834 146.627C88.6901 151.844 84.8459 157.885 83.1984 164.749C81.5509 172.163 82.6492 180.401 82.3747 187.814C82.3747 188.638 83.473 188.913 83.7476 188.089C85.3951 181.773 84.0222 175.458 84.5713 169.143C85.3951 160.905 89.5138 154.315 94.1817 147.451C94.4563 146.627 93.6326 146.078 93.0834 146.627Z" fill="#260029"/>
<path d="M160.356 138.664C150.197 139.488 138.664 141.136 131.525 149.098C124.66 156.787 124.386 168.045 118.345 176.282C117.796 176.831 118.62 177.655 119.169 177.106C124.935 171.889 125.759 163.926 128.504 157.061C133.996 143.881 147.725 141.685 160.356 140.037C161.454 139.763 161.454 138.664 160.356 138.664Z" fill="#260029"/>
<path d="M200.171 114.501C190.011 119.718 182.872 129.054 173.262 135.369C172.712 135.643 172.987 136.742 173.811 136.467C183.97 131.25 190.56 121.091 200.72 115.874C201.269 115.324 200.994 114.226 200.171 114.501Z" fill="#260029"/>
<path d="M110.382 183.421C104.067 186.716 98.026 192.482 97.7514 200.17C97.4768 205.937 101.321 211.978 107.362 212.252C108.186 212.252 108.46 211.154 107.636 210.879C100.772 208.683 97.7514 202.367 100.497 195.503C102.694 190.56 106.813 187.54 110.931 184.519C111.755 184.245 110.931 183.146 110.382 183.421Z" fill="#260029"/>
<path d="M207.31 132.623C205.937 126.033 200.445 125.484 194.405 127.132C189.187 128.779 185.069 132.349 180.675 135.369C172.712 141.135 165.573 144.43 155.688 145.529C154.865 145.529 155.139 146.627 155.963 146.627C163.377 146.078 170.241 144.156 176.557 140.312C181.774 137.291 202.367 118.345 206.212 132.623C206.212 133.722 207.31 133.447 207.31 132.623Z" fill="#260029"/>
<path d="M151.57 149.922C146.078 152.942 140.312 156.237 136.468 161.454C132.075 167.495 131.525 175.184 126.308 180.675C125.759 181.224 126.583 182.048 127.132 181.499C131.251 177.929 132.624 173.261 134.82 168.319C138.39 160.081 144.431 155.414 152.119 151.02C152.943 150.471 152.394 149.373 151.57 149.922Z" fill="#260029"/>
<path d="M124.66 182.872C119.169 186.441 113.403 193.581 113.677 200.72C113.677 201.543 114.775 201.818 115.05 200.994C116.148 197.699 116.698 194.404 118.62 191.384C120.542 188.363 122.738 185.892 125.484 183.696C126.033 183.146 125.484 182.323 124.66 182.872Z" fill="#260029"/>
<path d="M116.423 206.211C116.698 207.858 116.972 210.33 118.62 211.153C119.169 211.428 119.993 211.153 119.718 210.33C119.443 208.682 118.345 207.309 117.796 205.662C117.796 204.838 116.148 205.113 116.423 206.211Z" fill="#260029"/>
<path d="M199.347 148.549C198.798 142.783 191.659 143.332 187.266 144.705C182.048 146.352 177.93 150.471 174.36 154.315C168.045 160.905 162.004 164.749 153.766 169.692C146.078 174.36 140.037 180.95 138.115 190.011C136.742 196.601 137.292 204.838 145.529 205.388C146.627 205.388 146.627 204.015 145.804 203.74C143.607 200.171 141.41 196.876 139.214 193.306C139.763 191.109 140.312 189.187 140.586 186.991C141.959 183.146 144.705 179.302 147.451 176.282C152.119 171.889 157.885 169.692 163.102 166.122C166.672 163.651 169.967 160.905 172.987 157.885C176.008 154.59 194.679 135.094 198.249 148.549C198.523 149.373 199.347 149.098 199.347 148.549Z" fill="#260029"/>
<path d="M196.327 155.688C198.524 152.668 197.425 149.098 193.856 147.451C186.167 143.881 177.381 156.237 173.262 160.631C163.652 170.241 132.075 182.872 143.882 201.818C144.431 202.642 146.078 202.093 145.529 200.994C136.468 186.442 154.59 177.106 164.201 170.79C168.045 168.319 171.34 165.299 174.36 162.004C176.282 160.082 178.204 157.885 180.401 155.963C181.225 155.139 182.049 154.315 182.872 153.492C185.893 149.922 190.012 150.471 195.229 155.139C194.679 155.688 195.778 156.237 196.327 155.688Z" fill="#260029"/>
<path d="M192.483 162.827C193.581 160.356 193.307 157.336 190.561 155.963C186.442 153.766 182.323 157.336 179.577 160.082C173.262 166.672 167.77 171.339 160.082 176.282C155.14 179.302 150.746 182.323 148.55 187.814C148.275 188.638 149.648 189.187 149.922 188.364C153.217 180.401 161.455 177.38 168.319 172.712C171.065 170.79 173.811 168.319 176.282 165.848C177.106 165.024 177.381 164.475 178.204 163.926C179.028 163.102 179.852 162.278 180.676 161.18C182.872 157.61 186.442 157.885 191.11 162.278C190.561 163.102 191.934 163.651 192.483 162.827Z" fill="#260029"/>
<path d="M147.451 191.658C145.804 193.855 144.98 198.523 147.451 200.445C148.001 200.72 148.824 200.445 148.55 199.621C148.275 198.523 147.726 197.425 147.726 196.326C147.726 194.953 148.001 193.58 148.824 192.482C149.099 191.658 148.001 190.835 147.451 191.658Z" fill="#260029"/>
<path d="M185.069 163.925C184.245 169.692 177.655 175.732 173.811 179.302C171.889 180.95 169.967 182.597 167.77 183.97C166.672 184.794 161.455 189.187 159.807 188.912C154.316 187.54 162.004 183.146 163.377 182.048C165.848 180.126 168.045 178.204 170.516 176.556C174.909 173.261 179.852 166.397 185.344 165.298C186.167 165.298 186.167 163.925 185.344 163.925C181.774 163.925 180.127 165.847 177.381 168.319C173.262 172.437 168.869 176.007 164.201 179.302C162.553 180.675 150.197 186.99 155.414 190.834C159.533 193.855 169.143 185.068 171.614 182.872C176.832 178.478 185.344 171.065 186.167 163.651C186.717 163.102 185.344 163.102 185.069 163.925Z" fill="#260029"/>
<path d="M176.831 149.098C169.692 150.746 164.75 156.237 159.533 160.905C154.59 165.299 146.627 167.77 143.881 174.085C143.607 174.909 144.705 175.458 144.98 174.634C148.549 169.417 155.688 166.397 160.631 162.278C165.848 157.61 170.791 152.942 177.381 150.196C177.93 149.922 177.655 148.824 176.831 149.098Z" fill="#260029"/>
<path d="M122.19 177.655C118.071 184.794 109.833 187.54 107.088 196.052C105.44 200.994 105.165 208.134 110.383 210.879C111.481 211.429 112.579 209.781 111.481 209.232C102.694 204.564 109.559 191.109 114.776 186.716C117.796 183.97 121.091 181.774 123.288 178.204C123.563 177.655 122.739 176.831 122.19 177.655Z" fill="#260029"/>
<path d="M103.243 202.916C102.42 205.937 103.518 210.33 106.538 211.703C107.362 212.252 107.911 210.879 107.362 210.33C105.165 208.408 103.518 206.486 104.342 203.191C104.342 202.642 103.243 202.092 103.243 202.916Z" fill="#260029"/>
<path d="M167.221 21.9666C146.627 24.987 121.64 21.9666 105.989 38.4415C99.9482 44.7569 96.6532 52.9944 92.809 60.6827C84.5715 77.4323 74.1374 84.2968 56.2895 88.141C55.4657 88.4156 55.7403 89.5139 56.5641 89.5139C75.7849 87.0427 85.9444 77.9814 94.7311 61.2319C101.321 48.6011 107.087 36.794 120.816 30.4786C135.095 24.1632 152.119 25.8107 167.496 23.0649C168.319 23.0649 168.045 21.9666 167.221 21.9666Z" fill="#260029"/>
<path d="M53.8184 89.5137C31.028 93.0832 17.2989 122.738 17.2989 143.332C17.2989 144.156 18.3972 144.43 18.6718 143.332C21.4176 122.738 30.7534 95.5545 54.093 90.612C55.1913 90.8866 54.9167 89.2391 53.8184 89.5137Z" fill="#260029"/>
<path d="M144.431 21.6915C118.62 20.044 91.7107 23.6136 67.822 34.5969C48.0521 43.6581 39.8146 61.7806 35.6958 82.3743C35.4213 83.1981 36.7942 83.4727 37.0687 82.6489C43.9333 59.584 51.0725 43.109 75.5103 33.7732C97.7515 25.2611 120.816 22.2407 144.156 22.7899C144.98 23.0644 145.254 21.6915 144.431 21.6915Z" fill="#260029"/>
<path d="M35.9702 81.2765C29.9293 97.7515 16.4748 109.833 16.2002 128.505C16.2002 129.054 17.2985 129.603 17.2985 128.779C19.7698 118.894 21.9664 109.833 27.4581 100.772C31.3022 94.4565 35.9702 88.9648 37.0685 81.2765C37.0685 80.7273 35.9702 80.4527 35.9702 81.2765Z" fill="#260029"/>
<path d="M115.325 26.6342C97.2021 28.8309 77.4321 31.8513 62.6046 43.6583C48.0518 55.4654 46.4043 73.0387 38.4414 89.2391C38.1668 89.7883 38.7159 90.612 39.5397 90.3374C54.3672 86.7678 70.0184 82.9237 81.0017 71.3912C94.1817 57.6621 97.7512 37.8921 115.599 28.2817C116.697 27.7325 115.874 26.085 114.775 26.6342C87.0425 41.1871 85.6696 84.2966 47.7772 86.4933C43.1093 86.7678 43.1093 88.6899 43.1093 83.7474C43.1093 80.727 45.8551 76.0591 46.6788 73.0387C49.9738 63.7029 53.2688 54.6417 60.6826 47.5025C75.51 33.4988 96.1037 30.753 115.325 27.7325C116.423 27.7325 116.148 26.3596 115.325 26.6342Z" fill="#260029"/>
<path d="M98.5752 37.343C98.0261 26.9089 77.707 37.6176 74.1374 39.8143C62.6049 47.228 49.4249 63.1538 47.5028 77.4321C46.1299 87.8663 59.3099 80.4525 63.9778 77.7067C79.629 68.92 89.7886 54.0926 98.3007 38.7159C98.8498 37.6176 97.2023 36.5193 96.6532 37.8922C91.7107 48.0518 85.6699 57.113 77.707 65.0759C74.1374 68.6455 70.2932 71.6659 66.1745 74.4117C61.5066 77.4321 48.8758 85.9442 50.5233 74.6863C51.8962 65.3505 60.6828 54.0926 67.2728 47.7772C69.1949 45.8551 96.104 26.9089 97.4769 37.343C97.2023 38.4414 98.5752 38.1668 98.5752 37.343Z" fill="#260029"/>
<path d="M92.2598 40.9122C92.2598 40.6377 92.5344 40.3631 92.5344 39.8139C92.5344 39.5393 92.5344 39.2647 92.2598 38.9902C88.6902 34.5968 79.0799 42.2852 75.7849 44.4818C67.822 49.6989 60.9574 56.2889 56.0149 64.5264C54.3674 67.2722 50.7978 74.1368 56.2895 75.2351C62.0557 76.608 73.5882 66.1739 77.4324 62.8789C77.9815 62.3297 77.1578 61.2314 76.6086 61.7805C71.9407 65.6247 67.2728 68.9197 62.0557 71.6655C60.9574 72.2147 59.8591 72.7638 58.7607 73.313C55.7403 70.5672 55.1911 68.0959 57.6624 65.6247C58.4861 63.7026 60.4082 61.7805 61.7811 60.133C65.3507 56.0143 68.9203 52.1701 73.3136 49.1497C75.7849 47.2276 78.2561 45.5801 81.0019 44.2072C81.5511 43.9327 91.4361 39.5393 91.1615 40.9122C90.6123 41.4614 91.9852 41.736 92.2598 40.9122Z" fill="#260029"/>
<path d="M78.8055 60.9567C79.3547 60.9567 79.6292 59.8584 78.8055 59.8584C78.2563 60.133 78.2563 60.9567 78.8055 60.9567Z" fill="#260029"/>
<path d="M86.2193 52.994C88.9651 49.4244 91.1618 45.3057 92.5347 41.1869C92.8093 40.0886 91.1618 39.5394 90.8872 40.6377C89.7888 45.0311 87.8668 48.8752 85.1209 52.4448C84.8464 52.994 85.6701 53.5431 86.2193 52.994Z" fill="#260029"/>
<path d="M85.9444 43.384C79.9036 45.5807 74.4119 49.1503 70.2932 53.8182C68.6457 55.4657 62.6048 61.5065 65.0761 64.5269C67.8219 68.0965 74.1373 63.4286 76.334 61.5065C81.2765 57.6623 85.6698 52.4453 88.141 46.679C88.4156 46.1299 87.3173 45.5807 87.0427 46.1299C84.8461 49.6994 82.6494 53.269 79.629 56.2894C78.2561 57.6623 76.8831 59.0353 75.2357 60.1336C74.1373 60.9573 73.039 62.0557 71.9407 62.6048C71.3915 62.8794 71.1169 63.154 70.5677 63.154C67.5473 62.3303 66.7236 60.9573 67.8219 59.5844C68.9202 56.2894 73.3136 52.9944 75.7848 50.7978C79.0798 48.0519 82.6494 46.1299 86.7681 44.4824C87.3173 44.2078 86.7681 42.8349 85.9444 43.384Z" fill="#260029"/>
<path d="M89.7885 72.2147C80.7272 95.5542 51.896 91.4355 36.5194 107.636C23.8886 120.541 21.1428 142.782 23.614 160.081C23.8886 161.179 25.5361 160.905 25.5361 159.807C23.8886 146.627 24.9869 133.447 30.204 121.09C35.6957 107.636 46.1298 101.87 59.0352 96.9271C72.2152 91.9846 86.2189 87.0421 90.8868 72.4892C91.1614 71.6655 90.0631 71.3909 89.7885 72.2147Z" fill="#260029"/>
<path d="M160.082 28.0073C138.939 30.204 116.148 34.0481 103.792 53.2689C103.518 53.8181 104.341 54.3673 104.616 53.8181C117.247 34.8719 139.488 31.8515 160.356 29.3802C161.18 29.1057 160.905 28.0073 160.082 28.0073Z" fill="#260029"/>
<path d="M98.3008 60.9573C98.0262 62.0556 97.4771 62.6048 96.9279 63.4285C96.6533 63.9777 97.2025 64.5268 97.7516 64.5268C99.1246 63.9777 99.6737 62.6047 99.6737 61.2318C99.6737 60.1335 98.3008 59.8589 98.3008 60.9573Z" fill="#260029"/>
<path d="M156.512 14.8271C144.705 10.1592 129.054 12.905 116.697 14.5525C101.046 16.4746 85.6696 19.495 71.6659 26.6341C71.1167 26.9087 71.3913 28.007 72.2151 27.7325C85.1205 21.9662 98.3004 18.3966 112.304 16.7491C126.308 15.1016 142.508 12.3558 156.237 16.2C156.787 16.4746 157.336 15.1016 156.512 14.8271Z" fill="#260029"/>
<path d="M65.0759 30.2035C62.33 31.5764 59.3096 33.2239 57.3875 35.9697C57.113 36.5189 57.6621 37.3427 58.2113 37.0681C60.6825 35.4206 63.1538 33.4985 65.625 31.851C66.9979 31.0273 66.1742 29.6543 65.0759 30.2035Z" fill="#260029"/>
<path d="M53.5436 39.5394C45.8553 46.1294 38.4416 53.2686 34.3228 62.6044C31.8516 67.8214 30.7532 73.8623 28.8312 79.3539C27.4582 83.1981 25.8108 86.7677 23.8887 90.0626C23.0649 91.7101 21.9666 93.6322 21.1428 95.2797C18.9462 99.9476 14.5529 101.321 7.41371 99.1239C7.41371 98.3001 6.31537 98.0256 6.04079 98.8493C3.56955 108.46 15.102 106.812 19.4953 101.595C24.7124 95.5543 28.5566 85.6693 31.3024 77.981C36.5195 62.6044 42.2857 51.8956 54.6419 40.9123C55.4657 40.0886 54.3674 38.9903 53.5436 39.5394Z" fill="#260029"/>
<path d="M27.1838 93.0831C24.7125 96.9273 22.5159 101.046 20.0446 104.89C17.2988 109.009 9.88506 114.226 6.86465 107.087C6.59006 106.263 5.21715 106.812 5.49173 107.636C6.59006 111.755 11.5326 113.128 15.1021 111.206C21.143 108.185 24.4379 99.3985 27.7329 93.9069C28.2821 93.0831 27.4584 92.534 27.1838 93.0831Z" fill="#260029"/>
<path d="M17.0244 112.304C16.2007 114.775 15.1023 116.972 14.2786 119.169C13.7294 120.267 13.4548 122.189 11.8074 121.64C11.2582 121.365 10.4344 118.07 10.1599 117.521C7.96319 111.755 7.41403 105.989 5.76653 100.223C5.49195 99.6734 4.39362 99.3988 4.39362 100.223C4.39362 104.89 6.04111 109.558 7.41403 113.952C8.51236 117.521 9.33611 121.64 11.2582 124.66C11.5328 124.935 11.8074 124.935 12.0819 124.935C13.4548 124.66 13.7294 124.111 14.2786 122.738C15.6515 119.443 16.7498 115.874 18.1228 112.579C18.3973 112.03 17.299 111.755 17.0244 112.304Z" fill="#260029"/>
<path d="M15.1019 140.037C12.6307 131.25 6.31526 121.365 7.96275 112.304C7.96275 111.755 7.139 111.48 6.86442 112.03C5.76609 116.148 6.58984 119.718 7.68817 123.562C9.61025 129.054 11.5323 134.82 13.729 140.312C14.2782 141.135 15.3765 140.861 15.1019 140.037Z" fill="#260029"/>
<path d="M21.4175 157.061C17.2987 150.196 13.7292 142.783 9.88501 135.644C9.61043 134.82 8.5121 135.369 8.78668 136.193C11.5325 143.881 15.9258 151.02 20.3192 157.885C20.8683 158.434 21.9667 157.61 21.4175 157.061Z" fill="#260029"/>
<path d="M43.3843 45.031C52.171 36.2444 60.9576 28.0069 72.2155 22.2406C81.2767 17.5727 93.0838 17.0236 101.596 11.5319C111.755 4.94192 99.6738 2.74525 93.0838 3.29442C92.26 3.29442 92.5346 4.66733 93.3584 4.66733C99.6738 9.33524 99.9484 12.0811 94.7313 12.6302C93.3584 13.1794 91.7109 13.7286 90.0634 14.2777C88.1413 14.8269 86.2192 15.3761 84.5717 15.9252C78.2563 17.8473 72.4901 20.5931 66.7238 23.8881C57.6626 29.1052 49.1505 35.9698 42.5606 44.2073C42.0114 44.7564 42.8351 45.5802 43.3843 45.031Z" fill="#260029"/>
<path d="M87.3173 5.21662C88.4156 5.21662 89.7885 5.21662 90.6123 6.04037C92.2598 7.1387 90.3377 8.51162 89.2394 9.06078C87.0427 10.1591 84.846 10.9829 82.924 12.0812C82.3748 12.3558 82.6494 13.4541 83.4731 13.1795C85.6698 12.3558 87.8664 11.532 90.0631 10.7083C91.436 10.1591 92.8089 9.60995 93.3581 7.96245C93.3581 6.58954 92.8089 5.49121 91.9852 4.66746C90.6123 3.56913 88.9648 3.56913 87.3173 3.84371C86.4935 3.84371 86.4935 4.94204 87.3173 5.21662Z" fill="#260029"/>
<path d="M66.9978 18.6712C61.2316 21.4171 54.9162 24.1629 50.2483 28.2816C49.6991 28.8308 50.2483 29.6546 50.7975 29.38C56.2891 26.085 61.5062 22.5154 67.547 19.7696C68.0962 19.2204 67.8216 18.3967 66.9978 18.6712Z" fill="#260029"/>
<path d="M79.0797 12.6303C76.883 13.4541 74.4118 14.2778 72.4897 15.3762C71.9405 15.6508 71.9405 16.7491 73.0389 16.7491C75.5101 16.1999 77.7068 15.1016 79.9034 14.0033C80.7272 13.7287 80.178 12.3558 79.0797 12.6303Z" fill="#260029"/>
<path d="M37.6177 45.8551C35.1465 48.8755 32.9498 52.4451 30.4786 55.4655C29.1057 57.3876 27.4582 59.0351 25.8107 60.6826C24.9869 61.5063 24.4378 62.0555 23.614 62.8792C21.4173 65.625 18.6715 65.0759 15.9257 61.7809C16.2003 60.6826 14.5528 60.1334 14.2782 61.2317C12.3561 66.7234 18.9461 68.0963 22.7903 65.8996C26.0852 63.9776 28.5565 60.6826 31.0277 57.9367C34.0481 54.6417 37.0686 50.7976 38.9906 46.6788C39.2652 45.8551 38.1669 45.3059 37.6177 45.8551Z" fill="#260029"/>
<path d="M46.679 30.7525C42.5603 34.0475 38.4416 37.6171 35.4211 41.7358C34.0482 43.6579 32.6753 45.58 31.3024 47.5021C30.7532 48.0512 21.1428 58.4854 20.8683 53.2683C20.8683 52.17 19.2208 51.8954 19.2208 52.9937C19.2208 59.3091 26.6345 54.6412 29.1057 52.7192C31.8516 50.2479 33.7737 46.9529 35.9703 43.9325C39.2653 39.2646 43.384 35.4204 47.7774 31.8509C48.3265 31.0271 47.5028 30.2034 46.679 30.7525Z" fill="#260029"/>
<path d="M72.4897 12.356C55.7401 18.1222 41.1873 28.0072 29.6548 41.4617C29.1056 42.2855 30.2039 43.1092 31.0277 42.2855C42.8347 29.3801 56.8385 19.7697 73.0389 13.4543C73.8626 13.1797 73.3134 11.8068 72.4897 12.356Z" fill="#260029"/>
<path d="M33.7736 55.7399C30.4786 61.2316 18.6715 82.9236 18.1224 84.022C16.4749 87.3169 13.4545 87.3169 9.06113 84.022C9.06113 82.9236 7.41364 82.649 7.41364 83.7474C7.41364 89.5136 13.1799 91.7103 17.2986 87.8661C20.8682 84.5711 23.0649 78.5303 25.2615 74.4116C28.5565 68.3707 31.8515 62.3299 34.8719 56.2891C35.1465 55.7399 34.0482 55.1908 33.7736 55.7399Z" fill="#260029"/>
<path d="M178.205 30.4783C160.631 31.0274 143.058 35.4208 127.407 43.9328C126.583 44.2074 127.132 45.3057 127.956 45.0312C144.156 37.3428 160.357 32.9495 178.205 31.8512C179.028 31.8512 179.028 30.4783 178.205 30.4783Z" fill="#260029"/>
<path d="M119.718 51.3468C112.853 60.1334 109.558 69.7438 105.989 80.178C99.948 98.0259 88.4155 103.243 70.8422 104.616C56.2893 105.714 38.1669 107.087 34.8719 124.386C34.8719 124.935 35.9702 125.21 35.9702 124.66C43.1094 97.2021 77.7068 112.853 95.8293 100.223C100.772 96.6529 103.792 91.7105 105.989 86.2188C110.657 74.1372 113.677 63.1538 121.091 52.1705C121.64 51.3468 120.542 50.7976 119.718 51.3468Z" fill="#260029"/>
<path d="M113.403 54.0924C104.616 58.7603 100.223 66.9978 95.2803 75.2353C86.219 90.0628 74.9611 95.0053 58.4862 99.3986C57.6624 99.6732 57.6624 101.046 58.7607 101.046C70.0186 98.8494 81.2765 95.5544 89.2394 86.7678C98.3007 76.6082 101.87 63.1536 113.952 55.4653C114.776 54.9162 114.226 53.8178 113.403 54.0924Z" fill="#260029"/>
<path d="M114.227 54.916C107.362 62.3297 105.166 71.6655 100.772 80.7267C96.6536 89.5134 90.8874 96.378 81.0024 98.0255C73.8632 99.1238 66.7241 98.8492 59.5849 99.9475C58.7612 99.9475 58.7612 101.32 59.5849 101.32C71.6666 101.32 86.494 102.144 95.2807 92.5338C104.891 82.0997 106.264 66.723 115.051 55.7397C115.6 55.1905 114.776 54.3668 114.227 54.916Z" fill="#260029"/>
<path d="M130.701 37.3431C126.583 39.5398 123.013 42.8348 119.993 46.1298C117.247 49.1502 113.677 52.7198 112.304 56.5639C112.03 57.1131 112.854 57.9369 113.403 57.3877C116.423 54.3673 118.345 50.5231 121.091 47.2281C124.111 43.6586 127.681 40.9127 131.251 37.8923C132.074 37.8923 131.525 37.0686 130.701 37.3431Z" fill="#260029"/>
<path d="M63.1538 99.1242C56.8384 98.0259 49.1501 101.87 45.5805 106.813C45.0314 107.362 45.8551 108.185 46.4043 107.636C48.8755 105.714 51.3468 103.792 54.0926 102.694C57.113 101.596 60.1334 101.321 63.1538 100.772C64.2521 100.497 63.9776 99.1242 63.1538 99.1242Z" fill="#260029"/>
<path d="M100.772 73.8622C98.8496 77.9809 96.6529 81.8251 93.6325 85.3947C90.6121 88.9643 87.0425 90.8863 83.4729 93.6322C82.6492 94.1813 83.4729 95.5542 84.2967 95.2797C93.9071 93.3576 98.8496 82.0997 101.87 74.1368C102.419 73.5876 101.321 73.0385 100.772 73.8622Z" fill="#260029"/>
<path d="M56.5643 113.128C34.8722 126.308 23.3397 165.024 37.8926 186.99C38.7164 188.363 40.6384 186.99 40.0893 185.617C29.6551 162.552 36.5197 129.053 57.1134 114.226C57.9372 113.677 57.1134 112.853 56.5643 113.128Z" fill="#260029"/>
<path d="M33.7739 129.328C30.2044 137.565 28.5569 146.626 27.1839 155.413C26.3602 162.552 24.7127 171.064 28.0077 177.654C28.8314 179.027 30.4789 177.929 29.9298 176.831C25.2619 162.003 30.7535 144.43 34.5977 130.152C35.1468 129.053 34.0485 128.504 33.7739 129.328Z" fill="#260029"/>
<path d="M174.909 33.7732C157.611 36.519 133.996 37.6173 123.288 53.8177C122.739 54.6415 123.837 55.1906 124.386 54.6415C137.291 39.814 157.061 38.7157 175.184 35.1461C176.282 34.8715 176.008 33.4986 174.909 33.7732Z" fill="#260029"/>
<path d="M154.041 41.4614C144.705 42.8343 135.369 46.6785 128.779 53.543C128.23 54.0922 129.054 55.1905 129.603 54.6414C137.017 48.8751 144.431 44.4818 154.041 42.8343C154.865 42.5597 154.59 41.1868 154.041 41.4614Z" fill="#260029"/>
<path d="M121.365 58.2111C119.443 62.0552 117.521 66.7231 116.423 70.8419C116.148 71.6656 117.247 71.9402 117.521 71.1165C119.169 66.9977 120.816 62.6044 122.464 58.4857C123.013 57.9365 121.915 57.3873 121.365 58.2111Z" fill="#260029"/>
<path d="M133.997 102.144C127.407 111.48 120.542 120.267 110.108 125.759C103.243 129.328 95.8297 131.799 90.6126 137.84C90.0635 138.389 91.1618 139.488 91.711 138.938C98.8501 132.074 108.461 129.877 116.423 124.111C124.386 118.619 129.603 110.656 134.82 102.968C135.095 102.144 134.271 101.595 133.997 102.144Z" fill="#260029"/>
<path d="M119.444 115.599C114.226 119.169 109.009 122.189 103.518 125.209C102.969 125.484 103.243 126.582 104.067 126.308C110.108 124.111 115.325 120.267 120.267 116.423C121.091 115.874 120.267 115.05 119.444 115.599Z" fill="#260029"/>
<path d="M75.7851 161.18C71.1172 171.614 74.9614 183.97 72.4901 194.953C72.2155 195.777 73.3139 196.326 73.863 195.502C78.2564 184.794 73.3139 172.712 77.158 161.729C77.158 160.63 76.0597 160.356 75.7851 161.18Z" fill="#260029"/>
<path d="M70.2934 181.499C70.2934 182.323 70.2934 183.421 70.0188 184.245C70.0188 185.068 69.7442 186.167 69.4697 186.99C69.4697 187.54 70.2934 188.089 70.568 187.54C71.3917 185.892 71.9409 183.421 71.3917 181.773C71.3917 180.675 70.2934 180.675 70.2934 181.499Z" fill="#260029"/>
<path d="M184.794 65.8993C179.577 66.7231 173.536 68.096 168.868 71.1164C168.319 71.6656 168.868 72.4893 169.692 72.2147C174.909 70.5673 179.577 68.3706 185.069 66.9977C185.892 66.9977 185.618 65.6248 184.794 65.8993Z" fill="#260029"/>
<path d="M177.106 51.3467C165.299 53.2687 152.668 59.035 144.705 68.0962C144.156 68.6454 145.254 69.4691 145.803 68.92C155.963 61.2316 164.75 55.4654 177.381 52.7196C178.204 52.445 177.93 51.0721 177.106 51.3467Z" fill="#260029"/>
<path d="M141.685 71.3915C140.312 72.7644 138.939 73.8627 137.841 75.5102C137.291 76.0594 138.115 76.6085 138.664 76.3339C140.037 75.2356 141.41 73.8627 142.509 72.7644C143.332 71.9406 142.508 70.5677 141.685 71.3915Z" fill="#260029"/>
<path d="M162.004 49.9739C155.414 53.5435 148 57.9368 142.783 63.7031C142.234 64.2522 143.058 65.076 143.607 64.8014C150.197 60.6826 155.963 55.4656 162.553 51.3468C163.377 50.7977 162.828 49.4248 162.004 49.9739Z" fill="#260029"/>
<path d="M123.013 90.6117C116.698 98.3001 109.558 104.615 101.87 110.931C101.321 111.48 101.87 112.304 102.419 112.029C110.657 107.087 118.345 99.3984 124.111 91.7101C124.935 90.6117 123.562 89.788 123.013 90.6117Z" fill="#260029"/>
<path d="M109.284 100.771C108.185 101.87 107.087 102.693 105.989 103.792C105.44 104.341 106.263 104.89 106.812 104.615C107.911 103.792 109.009 102.693 109.833 101.87C110.657 101.32 109.833 100.222 109.284 100.771Z" fill="#260029"/>
<path d="M86.7681 121.365C78.256 124.66 69.4693 130.701 64.8014 138.664C64.5268 139.488 65.3506 140.037 65.8998 139.488C72.2152 132.348 78.5306 126.308 87.5918 122.463C87.8664 121.914 87.5918 121.091 86.7681 121.365Z" fill="#260029"/>
<path d="M71.9404 126.857C70.0184 127.955 67.8217 129.603 66.7234 131.799C66.4488 132.349 67.2725 132.898 67.8217 132.623C69.4692 131.25 70.8421 129.603 72.7642 128.23C73.5879 127.681 72.7642 126.308 71.9404 126.857Z" fill="#260029"/>
<path d="M57.6624 157.336C52.4453 166.672 51.8962 177.655 53.5437 188.089C53.5437 188.913 54.9166 188.913 54.9166 188.089C54.642 177.655 53.8183 167.77 59.0353 158.16C59.3099 157.336 58.2116 156.787 57.6624 157.336Z" fill="#260029"/>
<path d="M49.9743 173.261C48.876 176.556 48.876 179.851 49.6997 183.146C49.9743 183.97 51.0726 183.695 50.7981 182.872C50.5235 179.851 50.5235 176.831 51.0726 173.81C51.6218 172.987 50.2489 172.437 49.9743 173.261Z" fill="#260029"/>
<path d="M78.5304 106.812C73.0387 107.087 66.7233 108.46 61.7808 111.206C61.2317 111.48 61.5063 112.853 62.0554 112.578C67.5471 110.931 72.7642 109.009 78.5304 108.185C79.6287 107.911 79.3541 106.538 78.5304 106.812Z" fill="#260029"/>
<path d="M57.1131 109.283C48.601 111.755 40.3635 118.894 38.4414 127.68C38.1669 128.504 39.5398 128.779 39.8144 127.955C43.6585 119.718 48.601 113.677 57.3876 110.382C57.9368 110.107 57.6622 109.009 57.1131 109.283Z" fill="#260029"/>
<path d="M53.5441 120.816C43.1099 129.328 38.9912 143.057 38.7166 156.237C38.7166 157.061 40.0895 157.335 40.0895 156.237C42.0116 143.332 43.6591 130.976 54.3678 121.64C55.1916 121.365 54.3678 120.267 53.5441 120.816Z" fill="#260029"/>
</g>
<defs>
<clipPath id="clip0_2_4686">
<rect width="213.076" height="213.9" fill="white"/>
</clipPath>
</defs>
</svg>
