<svg width="342" height="300" viewBox="0 0 342 300" fill="none" xmlns="http://www.w3.org/2000/svg">
<g opacity="0.3" clip-path="url(#clip0_2_4641)">
<mask id="mask0_2_4641" style="mask-type:alpha" maskUnits="userSpaceOnUse" x="13" y="0" width="301" height="300">
<path d="M163.558 299.368C149.638 299.368 135.756 297.418 122.294 293.555C83.8596 282.541 52.0413 257.224 32.652 222.27C13.2245 187.277 8.6353 146.854 19.6493 108.458C28.7894 76.6016 47.6433 49.2959 74.2223 29.5625C99.8835 10.5174 131.587 0.000488281 163.444 0.000488281C177.364 0.000488281 191.246 1.95089 204.708 5.81345C243.142 16.8275 274.999 42.1445 294.388 77.0987C313.778 112.053 318.367 152.476 307.353 190.91C298.213 222.767 279.359 250.073 252.78 269.806C227.119 288.851 195.415 299.368 163.558 299.368Z" fill="url(#paint0_radial_2_4641)"/>
</mask>
<g mask="url(#mask0_2_4641)">
<path opacity="0.5" d="M163.558 299.368C149.637 299.368 135.755 297.417 122.293 293.555C83.8591 282.541 52.0407 257.224 32.6515 222.27C13.2239 187.277 8.63475 146.854 19.6488 108.458C28.7889 76.6013 47.6428 49.2957 74.2218 29.5622C99.8829 10.5171 131.587 0.000244141 163.443 0.000244141C177.364 0.000244141 191.246 1.95065 204.707 5.81321C243.142 16.8272 274.998 42.1442 294.388 77.0985C313.777 112.053 318.366 152.476 307.352 190.91C298.212 222.767 279.358 250.072 252.779 269.806C227.118 288.851 195.414 299.368 163.558 299.368Z" fill="url(#paint1_radial_2_4641)"/>
</g>
<mask id="mask1_2_4641" style="mask-type:alpha" maskUnits="userSpaceOnUse" x="32" y="19" width="263" height="262">
<path d="M163.558 280.246C151.397 280.246 139.312 278.525 127.533 275.16C94.0322 265.561 66.2294 243.456 49.3259 212.976C32.4224 182.496 28.4069 147.236 38.006 113.697C45.9605 85.8941 62.4433 62.1069 85.6187 44.8975C108.029 28.2999 135.679 19.1216 163.444 19.1216C175.605 19.1216 187.69 20.8425 199.469 24.2079C232.97 33.807 260.772 55.9115 277.676 86.3913C294.579 116.871 298.595 152.131 288.996 185.671C281.003 213.435 264.559 237.222 241.383 254.432C218.973 271.068 191.323 280.246 163.558 280.246Z" fill="url(#paint2_radial_2_4641)"/>
</mask>
<g mask="url(#mask1_2_4641)">
<path opacity="0.5" d="M163.558 280.246C151.397 280.246 139.312 278.525 127.533 275.16C94.0318 265.561 66.229 243.456 49.3255 212.976C32.422 182.496 28.4065 147.236 38.0055 113.697C45.9601 85.8941 62.4429 62.1069 85.6183 44.8975C108.029 28.2999 135.679 19.1216 163.443 19.1216C175.604 19.1216 187.689 20.8425 199.468 24.2079C232.969 33.807 260.772 55.9115 277.675 86.3913C294.579 116.871 298.595 152.131 288.995 185.671C281.003 213.435 264.558 237.222 241.383 254.432C218.972 271.068 191.322 280.246 163.558 280.246Z" fill="url(#paint3_radial_2_4641)"/>
</g>
<mask id="mask2_2_4641" style="mask-type:alpha" maskUnits="userSpaceOnUse" x="52" y="38" width="223" height="224">
<path d="M163.558 261.124C153.194 261.124 142.868 259.671 132.81 256.803C104.204 248.58 80.4935 229.726 66.0759 203.683C51.6582 177.639 48.2163 147.58 56.4003 118.974C63.2076 95.2635 77.2429 74.9564 97.0146 60.271C116.136 46.0828 139.732 38.2429 163.443 38.2429C173.807 38.2429 184.133 39.6962 194.19 42.5644C222.796 50.7484 246.507 69.6023 260.925 95.6459C275.342 121.69 278.784 151.749 270.6 180.355C263.793 204.065 249.758 224.372 229.986 239.058C210.865 253.284 187.268 261.124 163.558 261.124Z" fill="url(#paint4_radial_2_4641)"/>
</mask>
<g mask="url(#mask2_2_4641)">
<path opacity="0.5" d="M163.558 261.124C153.194 261.124 142.868 259.671 132.81 256.803C104.204 248.581 80.4937 229.727 66.0761 203.683C51.6584 177.64 48.2165 147.58 56.4005 118.975C63.2078 95.2637 77.2431 74.9566 97.0148 60.2712C116.136 46.083 139.732 38.2432 163.443 38.2432C173.807 38.2432 184.133 39.6964 194.191 42.5646C222.797 50.7487 246.507 69.6026 260.925 95.6462C275.343 121.69 278.785 151.749 270.601 180.355C263.793 204.066 249.758 224.373 229.986 239.058C210.865 253.285 187.269 261.124 163.558 261.124Z" fill="url(#paint5_radial_2_4641)"/>
<path d="M163.482 241.965C214.447 241.965 255.762 200.649 255.762 149.684C255.762 98.7186 214.447 57.4031 163.482 57.4031C112.516 57.4031 71.2008 98.7186 71.2008 149.684C71.2008 200.649 112.516 241.965 163.482 241.965Z" fill="url(#paint6_linear_2_4641)"/>
</g>
<mask id="mask3_2_4641" style="mask-type:alpha" maskUnits="userSpaceOnUse" x="71" y="57" width="160" height="140">
<path d="M227.195 129.989C231.631 114.501 231.822 98.8209 228.495 84.1355C217.825 73.5421 204.402 65.3963 188.913 60.9601C139.924 46.9249 88.8308 75.2631 74.7573 124.253C70.3211 139.741 70.1299 155.421 73.457 170.106C84.1269 180.699 97.5502 188.845 113.039 193.281C162.066 207.317 213.159 178.979 227.195 129.989Z" fill="url(#paint7_linear_2_4641)"/>
</mask>
<g mask="url(#mask3_2_4641)">
<path opacity="0.15" d="M227.195 129.989C231.631 114.5 231.822 98.8206 228.495 84.1352C217.825 73.5419 204.402 65.3961 188.913 60.9599C139.924 46.9246 88.8308 75.2628 74.7573 124.252C70.3211 139.741 70.1299 155.421 73.457 170.106C84.1269 180.699 97.5502 188.845 113.039 193.281C162.066 207.316 213.159 178.978 227.195 129.989Z" fill="url(#paint8_linear_2_4641)"/>
</g>
<g opacity="0.3">
<mask id="mask4_2_4641" style="mask-type:alpha" maskUnits="userSpaceOnUse" x="-16" y="87" width="359" height="125">
<g opacity="0.3">
<g opacity="0.3">
<path opacity="0.3" d="M261.69 145.286C261.919 146.816 262.072 148.384 262.225 149.952C300.201 166.32 323.491 181.923 320.814 191.216C316.416 206.59 242.798 199.018 156.445 174.236C70.0916 149.455 3.62495 116.948 8.06116 101.574C10.7382 92.2429 38.7704 91.3633 79.6141 97.5969C80.5702 96.3349 81.5263 95.1111 82.5206 93.9256C27.7946 84.7472 -11.0604 85.7415 -14.7318 98.5912C-20.2388 117.789 55.1003 156.224 153.538 184.447C251.976 212.671 336.226 219.975 341.733 200.777C345.404 187.927 312.974 166.511 261.69 145.286Z" fill="url(#paint9_linear_2_4641)"/>
</g>
</g>
</mask>
<g mask="url(#mask4_2_4641)">
<path opacity="0.3" d="M261.69 145.286C261.919 146.816 262.072 148.384 262.225 149.952C300.2 166.32 323.49 181.923 320.813 191.216C316.415 206.59 242.797 199.018 156.444 174.236C70.0912 149.454 3.62458 116.948 8.06079 101.574C10.7378 92.2426 38.7701 91.363 79.6138 97.5967C80.5698 96.3346 81.5259 95.1109 82.5202 93.9253C27.7943 84.747 -11.0608 85.7413 -14.7321 98.591C-20.2392 117.789 55.0999 156.223 153.538 184.447C251.976 212.67 336.225 219.975 341.732 200.777C345.404 187.927 312.974 166.511 261.69 145.286Z" fill="url(#paint10_linear_2_4641)"/>
</g>
</g>
</g>
<defs>
<radialGradient id="paint0_radial_2_4641" cx="0" cy="0" r="1" gradientUnits="userSpaceOnUse" gradientTransform="translate(163.499 149.677) scale(149.699 149.699)">
<stop offset="0.6843"/>
<stop offset="0.727" stop-color="#0F0F0F"/>
<stop offset="0.8094" stop-color="#373737"/>
<stop offset="0.922" stop-color="#767676"/>
<stop offset="1" stop-color="#A6A6A6"/>
</radialGradient>
<radialGradient id="paint1_radial_2_4641" cx="0" cy="0" r="1" gradientUnits="userSpaceOnUse" gradientTransform="translate(163.498 149.677) scale(149.699 149.699)">
<stop offset="0.6843" stop-color="#552B6D"/>
<stop offset="1" stop-color="#552B6D"/>
</radialGradient>
<radialGradient id="paint2_radial_2_4641" cx="0" cy="0" r="1" gradientUnits="userSpaceOnUse" gradientTransform="translate(163.499 149.677) scale(130.573 130.573)">
<stop offset="0.6843"/>
<stop offset="0.727" stop-color="#0F0F0F"/>
<stop offset="0.8094" stop-color="#373737"/>
<stop offset="0.922" stop-color="#767676"/>
<stop offset="1" stop-color="#A6A6A6"/>
</radialGradient>
<radialGradient id="paint3_radial_2_4641" cx="0" cy="0" r="1" gradientUnits="userSpaceOnUse" gradientTransform="translate(163.498 149.677) scale(130.573 130.573)">
<stop offset="0.6843" stop-color="#552B6D"/>
<stop offset="1" stop-color="#552B6D"/>
</radialGradient>
<radialGradient id="paint4_radial_2_4641" cx="0" cy="0" r="1" gradientUnits="userSpaceOnUse" gradientTransform="translate(163.498 149.677) scale(111.447 111.447)">
<stop offset="0.6843"/>
<stop offset="0.727" stop-color="#0F0F0F"/>
<stop offset="0.8094" stop-color="#373737"/>
<stop offset="0.922" stop-color="#767676"/>
<stop offset="1" stop-color="#A6A6A6"/>
</radialGradient>
<radialGradient id="paint5_radial_2_4641" cx="0" cy="0" r="1" gradientUnits="userSpaceOnUse" gradientTransform="translate(163.498 149.677) scale(111.447 111.447)">
<stop offset="0.6843" stop-color="#552B6D"/>
<stop offset="1" stop-color="#552B6D"/>
</radialGradient>
<linearGradient id="paint6_linear_2_4641" x1="82.7876" y1="194.431" x2="244.209" y2="104.923" gradientUnits="userSpaceOnUse">
<stop stop-color="#552B6D"/>
<stop offset="1" stop-color="#2B1B73"/>
</linearGradient>
<linearGradient id="paint7_linear_2_4641" x1="118.745" y1="68.9663" x2="183.239" y2="185.278" gradientUnits="userSpaceOnUse">
<stop offset="0.2486"/>
<stop offset="1" stop-color="#DADADA"/>
</linearGradient>
<linearGradient id="paint8_linear_2_4641" x1="118.745" y1="68.9661" x2="183.239" y2="185.277" gradientUnits="userSpaceOnUse">
<stop offset="0.2486" stop-color="white"/>
<stop offset="1" stop-color="white"/>
</linearGradient>
<linearGradient id="paint9_linear_2_4641" x1="172.113" y1="119.618" x2="153.535" y2="184.441" gradientUnits="userSpaceOnUse">
<stop/>
<stop offset="1" stop-color="white"/>
</linearGradient>
<linearGradient id="paint10_linear_2_4641" x1="172.113" y1="119.618" x2="153.535" y2="184.441" gradientUnits="userSpaceOnUse">
<stop stop-color="white"/>
<stop offset="1" stop-color="white"/>
</linearGradient>
<clipPath id="clip0_2_4641">
<rect width="357" height="299.368" fill="white" transform="translate(-15)"/>
</clipPath>
</defs>
</svg>
