<svg width="136" height="129" viewBox="0 0 136 129" fill="none" xmlns="http://www.w3.org/2000/svg">
<path d="M125.298 106.909C135.621 91.6818 140.461 52.5087 130.694 38.5238C119.634 22.6901 54.5833 -20.4755 27.5352 11.4812C15.8765 25.267 1.34236 52.2432 0.0539168 68.4787C-1.02071 82.0397 14.5899 110.874 27.5352 121.738C41.1975 133.216 71.0511 128.223 93.6827 124.051C101.579 122.59 118.126 117.497 125.298 106.909Z" fill="#E2898D"/>
<path d="M125.298 106.909C135.621 91.6818 140.461 52.5087 130.694 38.5238C119.634 22.6901 54.5833 -20.4755 27.5352 11.4812C15.8765 25.267 1.34236 52.2432 0.0539168 68.4787C-1.02071 82.0397 14.5899 110.874 27.5352 121.738C41.1975 133.216 71.0511 128.223 93.6827 124.051C101.579 122.59 118.126 117.497 125.298 106.909Z" fill="#BC6B33"/>
<path d="M125.298 106.909C135.621 91.6818 140.461 52.5087 130.694 38.5238C119.634 22.6901 54.5833 -20.4755 27.5352 11.4812C15.8765 25.267 1.34236 52.2432 0.0539168 68.4787C-1.02071 82.0397 14.5899 110.874 27.5352 121.738C41.1975 133.216 71.0511 128.223 93.6827 124.051C101.579 122.59 118.126 117.497 125.298 106.909Z" fill="url(#paint0_linear_2_6602)"/>
<g style="mix-blend-mode:color-dodge">
<path d="M45.3632 30.0447C39.7891 23.4458 34.3552 16.7234 28.7222 10.1743C28.3185 10.6001 27.9222 11.0388 27.5351 11.4959C22.2431 17.752 16.3594 26.7306 11.3862 36.1957C19.3197 40.5348 27.3071 44.7786 35.3487 48.9272C37.9862 42.2857 41.3445 35.9537 45.3632 30.0447Z" fill="#F05759"/>
</g>
<g style="mix-blend-mode:color-dodge">
<path d="M33.2105 96.7527C31.831 92.6656 30.8616 88.4514 30.3165 84.1724L29.9958 84.3309C22.6946 88.0064 15.8856 92.5703 9.05627 97.0937C11.4792 101.613 14.1971 105.969 17.1925 110.131C20.0716 107.503 23.0725 105.009 26.0973 102.552C28.4751 100.624 30.8462 98.6906 33.2105 96.7527Z" fill="#F05759"/>
</g>
<g style="mix-blend-mode:multiply" opacity="0.8">
<path d="M1.13776 61.8927C0.609232 64.0572 0.246897 66.2589 0.0539142 68.4787C-0.128569 70.7809 0.184786 73.5255 0.861266 76.5429C13.7291 70.5966 25.8892 63.1055 38.9561 57.5444C46.1448 54.479 53.4976 51.7233 60.7859 48.8497C60.6606 48.564 60.5463 48.2746 60.4173 47.9907C40.7367 52.9012 20.916 57.325 1.13776 61.8927Z" fill="#BC6B33"/>
<path d="M1.13776 61.8927C0.609232 64.0572 0.246897 66.2589 0.0539142 68.4787C-0.128569 70.7809 0.184786 73.5255 0.861266 76.5429C13.7291 70.5966 25.8892 63.1055 38.9561 57.5444C46.1448 54.479 53.4976 51.7233 60.7859 48.8497C60.6606 48.564 60.5463 48.2746 60.4173 47.9907C40.7367 52.9012 20.916 57.325 1.13776 61.8927Z" fill="url(#paint1_linear_2_6602)"/>
</g>
<g style="mix-blend-mode:multiply" opacity="0.8">
<path d="M130.688 38.5347C121.429 25.265 74.2325 -7.18939 43.2711 1.45553C46.6056 11.3557 50.6442 21.031 54.6256 30.6935C57.7408 38.2509 60.8264 45.7917 64.1314 53.2643C64.9074 55.0209 65.6723 56.7794 66.4115 58.5508C66.5168 58.5697 66.6164 58.6123 66.703 58.6752C66.7895 58.7381 66.8607 58.8197 66.9112 58.9141C66.9618 59.0084 66.9903 59.1129 66.9947 59.2198C66.9992 59.3267 66.9794 59.4332 66.9368 59.5314L66.8686 59.6715C68.8004 64.4013 70.4962 69.2141 71.5339 74.2333C71.6998 75.048 70.4538 75.3964 70.2842 74.5798C69.3386 69.9938 67.8419 65.5828 66.1184 61.2493C59.6301 75.1291 51.5842 88.161 44.0139 101.458C40.1283 108.278 36.3773 115.176 33.0612 122.287C32.6926 123.067 32.3405 123.849 31.9811 124.632C46.9613 132.234 73.2703 127.806 93.6826 124.037C101.579 122.58 118.126 117.487 125.298 106.907C135.621 91.689 140.457 52.5159 130.688 38.5347Z" fill="#BC6B33"/>
<path d="M130.688 38.5347C121.429 25.265 74.2325 -7.18939 43.2711 1.45553C46.6056 11.3557 50.6442 21.031 54.6256 30.6935C57.7408 38.2509 60.8264 45.7917 64.1314 53.2643C64.9074 55.0209 65.6723 56.7794 66.4115 58.5508C66.5168 58.5697 66.6164 58.6123 66.703 58.6752C66.7895 58.7381 66.8607 58.8197 66.9112 58.9141C66.9618 59.0084 66.9903 59.1129 66.9947 59.2198C66.9992 59.3267 66.9794 59.4332 66.9368 59.5314L66.8686 59.6715C68.8004 64.4013 70.4962 69.2141 71.5339 74.2333C71.6998 75.048 70.4538 75.3964 70.2842 74.5798C69.3386 69.9938 67.8419 65.5828 66.1184 61.2493C59.6301 75.1291 51.5842 88.161 44.0139 101.458C40.1283 108.278 36.3773 115.176 33.0612 122.287C32.6926 123.067 32.3405 123.849 31.9811 124.632C46.9613 132.234 73.2703 127.806 93.6826 124.037C101.579 122.58 118.126 117.487 125.298 106.907C135.621 91.689 140.457 52.5159 130.688 38.5347Z" fill="url(#paint2_linear_2_6602)"/>
</g>
<g style="mix-blend-mode:multiply" opacity="0.8">
<path d="M70.2842 74.5836C69.3386 69.9976 67.8419 65.5866 66.1184 61.2531C59.6301 75.1329 51.5843 88.1648 44.014 101.462C42.591 103.959 41.1944 106.472 39.8242 109.001C42.626 112.076 46.5116 113.585 51.223 113.834C58.7186 114.201 66.2299 114.086 73.7109 113.491C81.684 112.914 89.6156 111.861 97.4632 110.337C103.48 109.152 109.341 107.873 113.618 103.112C117.394 98.9092 119.785 93.6375 121.966 88.4763C125.125 81.0148 128.55 56.9564 128.471 52.9418C128.364 52.3575 128.272 51.7695 128.143 51.1925C126.2 42.5439 121.262 36.4464 114.563 30.83C104.285 22.2348 92.785 15.2433 79.8674 11.3743C69.4142 8.24071 56.6588 6.65918 47.5696 13.2175C49.8369 19.0773 52.2294 24.8946 54.6257 30.6972C57.7408 38.2546 60.8264 45.7954 64.1314 53.2681C64.9074 55.0247 65.6724 56.7832 66.4115 58.5546C66.5168 58.5735 66.6165 58.6161 66.703 58.679C66.7895 58.7419 66.8607 58.8235 66.9113 58.9179C66.9618 59.0122 66.9903 59.1167 66.9948 59.2236C66.9992 59.3305 66.9794 59.437 66.9369 59.5352L66.8686 59.6753C68.8004 64.4051 70.4962 69.2179 71.534 74.2371C71.7035 75.0518 70.4538 75.4002 70.2842 74.5836Z" fill="#BC6B33"/>
<path d="M70.2842 74.5836C69.3386 69.9976 67.8419 65.5866 66.1184 61.2531C59.6301 75.1329 51.5843 88.1648 44.014 101.462C42.591 103.959 41.1944 106.472 39.8242 109.001C42.626 112.076 46.5116 113.585 51.223 113.834C58.7186 114.201 66.2299 114.086 73.7109 113.491C81.684 112.914 89.6156 111.861 97.4632 110.337C103.48 109.152 109.341 107.873 113.618 103.112C117.394 98.9092 119.785 93.6375 121.966 88.4763C125.125 81.0148 128.55 56.9564 128.471 52.9418C128.364 52.3575 128.272 51.7695 128.143 51.1925C126.2 42.5439 121.262 36.4464 114.563 30.83C104.285 22.2348 92.785 15.2433 79.8674 11.3743C69.4142 8.24071 56.6588 6.65918 47.5696 13.2175C49.8369 19.0773 52.2294 24.8946 54.6257 30.6972C57.7408 38.2546 60.8264 45.7954 64.1314 53.2681C64.9074 55.0247 65.6724 56.7832 66.4115 58.5546C66.5168 58.5735 66.6165 58.6161 66.703 58.679C66.7895 58.7419 66.8607 58.8235 66.9113 58.9179C66.9618 59.0122 66.9903 59.1167 66.9948 59.2236C66.9992 59.3305 66.9794 59.437 66.9369 59.5352L66.8686 59.6753C68.8004 64.4051 70.4962 69.2179 71.534 74.2371C71.7035 75.0518 70.4538 75.4002 70.2842 74.5836Z" fill="url(#paint3_linear_2_6602)"/>
</g>
<g style="mix-blend-mode:multiply" opacity="0.8">
<path d="M64.1314 53.2697C64.7458 54.6657 65.3498 56.0672 65.9433 57.4742C67.1654 57.0097 68.3838 56.5415 69.6022 56.0788C80.4775 51.961 91.4523 48.1712 102.619 44.9142C111.669 42.2746 120.781 39.8728 129.899 37.4895C119.037 23.6428 73.4491 -6.97753 43.2711 1.45542C46.6056 11.3556 50.6442 21.0309 54.6257 30.6933C57.7408 38.2471 60.8282 45.7915 64.1314 53.2697Z" fill="#BC6B33"/>
<path d="M64.1314 53.2697C64.7458 54.6657 65.3498 56.0672 65.9433 57.4742C67.1654 57.0097 68.3838 56.5415 69.6022 56.0788C80.4775 51.961 91.4523 48.1712 102.619 44.9142C111.669 42.2746 120.781 39.8728 129.899 37.4895C119.037 23.6428 73.4491 -6.97753 43.2711 1.45542C46.6056 11.3556 50.6442 21.0309 54.6257 30.6933C57.7408 38.2471 60.8282 45.7915 64.1314 53.2697Z" fill="url(#paint4_linear_2_6602)"/>
</g>
<g style="mix-blend-mode:multiply" opacity="0.8">
<path d="M103.408 93.8422C93.1446 87.0903 82.6877 80.5116 73.0382 72.8953C73.5009 73.5625 73.9451 74.2445 74.4114 74.9081C80.464 83.5834 87.0066 91.9064 94.0072 99.8365C99.5039 106.034 104.855 112.371 110.313 118.638C115.52 116.172 120.6 112.841 124.104 108.5C117.369 103.395 110.47 98.5093 103.408 93.8422Z" fill="#BC6B33"/>
<path d="M103.408 93.8422C93.1446 87.0903 82.6877 80.5116 73.0382 72.8953C73.5009 73.5625 73.9451 74.2445 74.4114 74.9081C80.464 83.5834 87.0066 91.9064 94.0072 99.8365C99.5039 106.034 104.855 112.371 110.313 118.638C115.52 116.172 120.6 112.841 124.104 108.5C117.369 103.395 110.47 98.5093 103.408 93.8422Z" fill="url(#paint5_linear_2_6602)"/>
</g>
<path d="M113.321 95.5435C121.481 83.4978 125.311 52.518 117.584 41.4584C108.842 28.9389 57.3868 -5.20213 35.9957 20.0709C26.7794 30.9665 15.2792 52.3023 14.2599 65.1425C13.4083 75.8648 25.7563 98.6716 35.9957 107.265C46.8009 116.343 70.4132 112.395 88.3113 109.092C94.56 107.938 107.647 103.91 113.321 95.5435Z" fill="#AE4A2B"/>
<path d="M110.806 93.1564C118.749 81.435 122.474 51.2902 114.956 40.5311C106.453 28.3471 56.384 -4.87413 35.5753 19.7224C26.5986 30.3194 15.41 51.0801 14.4164 63.5756C13.5907 74.0085 25.6032 96.2015 35.5679 104.561C46.0746 113.395 69.0583 109.554 86.4735 106.338C92.5507 105.217 105.284 101.302 110.806 93.1564Z" fill="#E28B41"/>
<path d="M110.806 93.1564C118.749 81.435 122.474 51.2902 114.956 40.5311C106.453 28.3471 56.384 -4.87413 35.5753 19.7224C26.5986 30.3194 15.41 51.0801 14.4164 63.5756C13.5907 74.0085 25.6032 96.2015 35.5679 104.561C46.0746 113.395 69.0583 109.554 86.4735 106.338C92.5507 105.217 105.284 101.302 110.806 93.1564Z" fill="url(#paint6_linear_2_6602)"/>
<g style="mix-blend-mode:screen">
<path d="M18.774 69.6566C19.7934 56.8164 31.2917 35.4787 40.5117 24.585C58.9849 2.75148 99.9055 25.2523 116.333 39.8602C104.783 26.3085 56.5371 -4.19395 35.9957 20.0708C26.7794 30.9664 15.2792 52.3022 14.2599 65.1424C13.4083 75.8647 25.7563 98.6715 35.9957 107.265C36.0104 107.278 36.027 107.287 36.0418 107.302C27.0153 96.9148 18.0441 78.8508 18.774 69.6566Z" fill="#E28B41"/>
</g>
<path d="M52.3196 44.7911C52.3196 44.7911 51.0017 34.5702 60.8079 38.4005L95.607 59.8653C95.607 59.8653 100.646 62.4717 100.366 67.9757C100.646 73.4705 95.607 76.075 95.607 76.075L60.8079 97.527C51.0017 101.357 52.3196 91.1327 52.3196 91.1327V44.7911Z" fill="#BF6C2E"/>
<g style="mix-blend-mode:screen">
<path d="M50.5188 41.2316C50.5188 41.2316 49.2009 31.0126 58.9979 34.841L93.808 56.3022C93.808 56.3022 98.8419 58.9067 98.5655 64.4034C98.8419 69.8963 93.808 72.5008 93.808 72.5008L59.0052 93.9638C49.2009 97.7923 50.5262 87.5714 50.5262 87.5714L50.5188 41.2316Z" fill="white"/>
</g>
<defs>
<linearGradient id="paint0_linear_2_6602" x1="68.0013" y1="-0.0114746" x2="68.0013" y2="128.805" gradientUnits="userSpaceOnUse">
<stop stop-color="#FF00F4"/>
<stop offset="1" stop-color="#3D78FE"/>
</linearGradient>
<linearGradient id="paint1_linear_2_6602" x1="30.3943" y1="47.9907" x2="30.3943" y2="76.543" gradientUnits="userSpaceOnUse">
<stop stop-color="#FF00F4"/>
<stop offset="1" stop-color="#3D78FE"/>
</linearGradient>
<linearGradient id="paint2_linear_2_6602" x1="83.9897" y1="0.0119629" x2="83.9897" y2="128.792" gradientUnits="userSpaceOnUse">
<stop stop-color="#FF00F4"/>
<stop offset="1" stop-color="#3D78FE"/>
</linearGradient>
<linearGradient id="paint3_linear_2_6602" x1="84.1481" y1="8.66077" x2="84.1481" y2="114.044" gradientUnits="userSpaceOnUse">
<stop stop-color="#FF00F4"/>
<stop offset="1" stop-color="#3D78FE"/>
</linearGradient>
<linearGradient id="paint4_linear_2_6602" x1="86.5852" y1="0.00976562" x2="86.5852" y2="57.4742" gradientUnits="userSpaceOnUse">
<stop stop-color="#FF00F4"/>
<stop offset="1" stop-color="#3D78FE"/>
</linearGradient>
<linearGradient id="paint5_linear_2_6602" x1="98.5712" y1="72.8953" x2="98.5712" y2="118.638" gradientUnits="userSpaceOnUse">
<stop stop-color="#FF00F4"/>
<stop offset="1" stop-color="#3D78FE"/>
</linearGradient>
<linearGradient id="paint6_linear_2_6602" x1="66.7089" y1="10.8762" x2="66.7089" y2="110.001" gradientUnits="userSpaceOnUse">
<stop stop-color="#FF00F4"/>
<stop offset="1" stop-color="#3D78FE"/>
</linearGradient>
</defs>
</svg>
